{"title":"Tremors.5.Bloodlines.2015.SWESUB.BRRip.x264-SWAXXON","uid":12542912,"size":1010834837,"categoryP":"video","categoryS":"movies","magnet":"?xt=urn:btih:5fce71518f32cd82657f550ee9de63a97bf22cf5&amp;dn=Tremors.5.Bloodlines.2015.SWESUB.BRRip.x264-SWAXXON&amp;tr=udp%3A%2F%2Ftracker.leechers-paradise.org%3A6969&amp;tr=udp%3A%2F%2Fzer0day.ch%3A1337&amp;tr=udp%3A%2F%2Fopen.demonii.com%3A1337&amp;tr=udp%3A%2F%2Ftracker.coppersurfer.tk%3A6969&amp;tr=udp%3A%2F%2Fexodus.desync.com%3A6969","seeders":0,"leechers":0,"uploader":"SWAXXON","files":2,"time":1444424084,"description":"Format                                   : Matroska\r\nFormat version                           : Version 4 / Version 2\r\nFile size                                : 964 MiB\r\nDuration                                 : 1h 39mn\r\nOverall bit rate mode                    : Variable\r\nOverall bit rate                         : 1 361 Kbps\r\nMovie name                               : t5b 1080p-Danishbits\r\nEncoded date                             : UTC 2015-10-09 18:21:26\r\nWriting application                      : mkvmerge v8.3.0 ('Over the Horizon') 32bit\r\nWriting library                          : libebml v1.3.1 + libmatroska v1.4.2\r\nDURATION                                 : 01:35:28.224000000\r\nNUMBER_OF_FRAMES                         : 1083\r\nNUMBER_OF_BYTES                          : 31524\r\n_STATISTICS_WRITING_APP                  : mkvmerge v8.3.0 ('Over the Horizon') 32bit\r\n_STATISTICS_WRITING_DATE_UTC             : 2015-10-09 18:21:26\r\n_STATISTICS_TAGS                         : BPS DURATION NUMBER_OF_FRAMES NUMBER_OF_BYTES\r\n\r\nVideo\r\nID                                       : 1\r\nFormat                                   : AVC\r\nFormat/Info                              : Advanced Video Codec\r\nFormat profile                           :   \r\nFormat settings, CABAC                   : Yes\r\nFormat settings, ReFrames                : 4 frames\r\nCodec ID                                 : V_MPEG4/ISO/AVC\r\nDuration                                 : 1h 39mn\r\nBit rate mode                            : Variable\r\nBit rate                                 : 886 Kbps\r\nMaximum bit rate                         : 300 Mbps\r\nWidth                                    : 640 pixels\r\nHeight                                   : 360 pixels\r\nDisplay aspect ratio                     : 16:9\r\nFrame rate mode                          : Constant\r\nFrame rate                               : 23.976 fps\r\nColor space                              : YUV\r\nChroma subsampling                       : 4:2:0\r\nBit depth                                : 8 bits\r\nScan type                                : Progressive\r\nBits/(Pixel*Frame)                       : 0.160\r\nStream size                              : 627 MiB (65%)\r\n\r\n\r\nAudio\r\nID                                       : 2\r\nFormat                                   : AC-3\r\nFormat/Info                              : Audio Coding 3\r\nMode extension                           : CM (complete main)\r\nFormat settings, Endianness              : Big\r\nCodec ID                                 : A_AC3\r\nDuration                                 : 1h 39mn\r\nBit rate mode                            : Constant\r\nBit rate                                 : 448 Kbps\r\nChannel(s)                               : 6 channels\r\nChannel positions                        : Front: L C R, Side: L R, LFE\r\nSampling rate                            : 48.0 KHz\r\nCompression mode                         : Lossy\r\nStream size                              : 317 MiB (33%)\r\nLanguage                                 : English\r\nDefault                                  : Yes\r\nForced                                   : No\r\n\r\nText #1\r\nID                                       : 3\r\nFormat                                   : UTF-8\r\nCodec ID                                 : S_TEXT/UTF8\r\nCodec ID/Info                            : UTF-8 Plain Text\r\nLanguage                                 : Danish\r\nDefault                                  : No\r\nForced                                   : No\r\n\r\nText #2\r\nID                                       : 4\r\nFormat                                   : UTF-8\r\nCodec ID                                 : S_TEXT/UTF8\r\nCodec ID/Info                            : UTF-8 Plain Text\r\nLanguage                                 : Swedish\r\nDefault                                  : Yes\r\nForced                                   : Yes\r\n\r\nText #3\r\nID                                       : 5\r\nFormat                                   : UTF-8\r\nCodec ID                                 : S_TEXT/UTF8\r\nCodec ID/Info                            : UTF-8 Plain Text\r\nLanguage                                 : Norwegian\r\nDefault                                  : No\r\nForced                                   : No\r\n\r\nText #4\r\nID                                       : 6\r\nFormat                                   : UTF-8\r\nCodec ID                                 : S_TEXT/UTF8\r\nCodec ID/Info                            : UTF-8 Plain Text\r\nLanguage                                 : Finnish\r\nDefault                                  : No\r\nForced                                   : No","torrent":{"xt":"urn:btih:5fce71518f32cd82657f550ee9de63a97bf22cf5","amp;dn":"Tremors.5.Bloodlines.2015.SWESUB.BRRip.x264-SWAXXON","amp;tr":["udp%3A%2F%2Ftracker.leechers-paradise.org%3A6969","udp%3A%2F%2Fzer0day.ch%3A1337","udp%3A%2F%2Fopen.demonii.com%3A1337","udp%3A%2F%2Ftracker.coppersurfer.tk%3A6969","udp%3A%2F%2Fexodus.desync.com%3A6969"],"infoHash":"5fce71518f32cd82657f550ee9de63a97bf22cf5","infoHashBuffer":{"type":"Buffer","data":[95,206,113,81,143,50,205,130,101,127,85,14,233,222,99,169,123,242,44,245]},"announce":[],"urlList":[]}}